<svg fill="#000000" viewBox="0 0 32 32" xmlns="http://www.w3.org/2000/svg">
    <g
        id="filterIcon"
    >
        <path id="trackHRight" d="M29,10H10a1,1,0,0,1,0-2H29a1,1,0,0,1,0,2Z"/>
        <path id="trackHLeft" d="M6,10H3A1,1,0,0,1,3,8H6a1,1,0,0,1,0,2Z"/>
        <path id="trackLLeft" d="M6,24H3a1,1,0,0,1,0-2H6a1,1,0,0,1,0,2Z"/>
        <path id="trackLRight" d="M29,24H10a1,1,0,0,1,0-2H29a1,1,0,0,1,0,2Z"/>
        <path id="trackMLeft" d="M21,17H3a1,1,0,0,1,0-2H21a1,1,0,0,1,0,2Z"/>
        <path id="trackMRight" d="M29,17H25a1,1,0,0,1,0-2h4a1,1,0,0,1,0,2Z"/>
    </g>
        <g
            id="knobsBg"
            fill="tan"
        >
            <path id="knobHFg" d="M6,8.47V11h4V8.47a2.11,2.11,0,0,1-2,1A2.11,2.11,0,0,1,6,8.47Z"/>
            <path id="knobMFg" d="M21,15.47V18h4V15.47a2.11,2.11,0,0,1-2,1A2.11,2.11,0,0,1,21,15.47Z"/>
            <path id="knobLFg" d="M6,22.47V25h4V22.47a2.11,2.11,0,0,1-2,1A2.11,2.11,0,0,1,6,22.47Z"/>
        </g>
        <g
            id="knobsBg"
        >
            <path id="knobHBg" d="M10,12H6a1,1,0,0,1-1-1V7A1,1,0,0,1,6,6h4a1,1,0,0,1,1,1v4A1,1,0,0,1,10,12ZM7,10H9V8H7Z"/>
            <path id="knobLBg" d="M10,26H6a1,1,0,0,1-1-1V21a1,1,0,0,1,1-1h4a1,1,0,0,1,1,1v4A1,1,0,0,1,10,26ZM7,24H9V22H7Z"/>
            <path id="knobMBg" d="M25,19H21a1,1,0,0,1-1-1V14a1,1,0,0,1,1-1h4a1,1,0,0,1,1,1v4A1,1,0,0,1,25,19Zm-3-2h2V15H22Z"/>
        </g>
</svg>