<svg
  width="800"
  height="800"
  viewBox="0 0 24 24"
  fill="#fffffb"
  xmlns="http://www.w3.org/2000/svg"
>
  <path
    id="inner-eye-hideLower"
    d="M 15.097207,9.8852344 14.004785,10.977598 C 14.161549,11.284368 14.25,11.631861 14.25,12 c 0,1.2426 -1.0074,2.25 -2.25,2.25 -0.368139,0 -0.715632,-0.08845 -1.022402,-0.245215 L 9.8852344,15.097207 C 10.487269,15.50906 11.215498,15.75 12,15.75 c 2.0711,0 3.75,-1.6789 3.75,-3.75 0,-0.784502 -0.24094,-1.512731 -0.652793,-2.1147656 z"
  />
  <path
    id="inner-eye-upper"
    d="M 15.097207,9.8851758 C 14.421772,8.8978737 13.286569,8.25 12,8.25 9.92893,8.25 8.25,9.92893 8.25,12 c 0,1.286587 0.6479089,2.421776 1.6352344,3.097207 L 10.977598,14.004785 C 10.248909,13.632413 9.75,12.874461 9.75,12 c 0,-1.2426 1.0074,-2.25 2.25,-2.25 0.874461,0 1.632413,0.498909 2.004785,1.227598 l 1.092422,-1.0923636 c -9e-6,-1.39e-5 1e-5,-4.47e-5 0,-5.86e-5 z"
  />
  <path
    id="outer-eye-hideLower"
    d="M 9.5998828,20.481855 10.896211,19.185469 C 9.4567202,19.014872 8.2044329,18.519044 7.1282227,17.85416 l -1.0858008,1.08586 c 1.0246031,0.677226 2.2078135,1.232107 3.5574609,1.541835 z"
  />
  <path
    id="outer-eye-lower"
    d="M 21.543164,8.5385156 20.47166,9.6100781 c 0.24064,0.3244791 0.40408,0.5739409 0.523535,0.8443949 0.158,0.3575 0.254825,0.794427 0.254825,1.545527 0,0.7511 -0.09682,1.188027 -0.254825,1.545527 -0.1689,0.3824 -0.425775,0.722896 -0.864375,1.292696 -1.6294,2.1169 -4.28122,4.411757 -8.13082,4.411757 -0.379507,0 -0.747398,-0.02228 -1.103789,-0.06451 L 9.5998828,20.481855 C 10.348306,20.65361 11.147897,20.74998 12,20.74998 c 4.5141,0 7.554695,-2.704175 9.319395,-4.996875 l 0.03182,-0.04131 c 0.3992,-0.5183 0.766674,-0.995676 1.016074,-1.560176 0.2671,-0.6045 0.382735,-1.263321 0.382735,-2.151621 0,-0.8883 -0.115635,-1.547121 -0.382735,-2.1516211 C 22.158468,9.3757435 21.866852,8.9641912 21.543164,8.5385156 Z"
  />
  <path
    id="outer-eye-hideUpper"
    d="m 19.082871,5.8995117 -1.064824,1.0648828 c 0.83651,0.6823061 1.53821,1.4509232 2.112773,2.1973828 0.128399,0.1668041 0.241234,0.3139924 0.34084,0.4483008 L 21.543164,8.5385156 C 21.480257,8.4557875 21.416169,8.3725481 21.351211,8.2882031 l -0.03182,-0.041367 C 20.722439,7.4712839 19.97948,6.6486416 19.082871,5.8995117 Z"
  />
  <path
    id="outer-eye-upper"
    d="m 12,3.2500195 c -4.51413,0 -7.5547331,2.7041564 -9.3194531,4.9968164 l -0.031816,0.041367 C 2.2496305,8.8065331 1.8820848,9.2838989 1.6327148,9.8483789 1.3656648,10.452879 1.2499805,11.1117 1.2499805,12 c 0,0.8883 0.1156843,1.547121 0.3827343,2.151621 0.24937,0.5645 0.6169057,1.041876 1.0160157,1.560176 l 0.031816,0.04131 c 0.8308917,1.079484 1.9446695,2.250192 3.361875,3.186915 L 7.1282227,17.85416 C 5.7680713,17.013857 4.6892208,15.903523 3.8692383,14.838223 3.4306583,14.268423 3.1737261,13.927927 3.0047461,13.545527 2.8468261,13.188027 2.7499805,12.7511 2.7499805,12 c 0,-0.7511 0.096846,-1.188027 0.2547656,-1.545527 0.16898,-0.3824 0.4259022,-0.7229057 0.8644922,-1.2926957 C 5.4986583,7.0448973 8.15036,4.7500195 12,4.7500195 c 2.492144,0 4.482304,0.9617337 6.018047,2.214375 L 19.082871,5.8995117 C 17.328956,4.4340897 14.987088,3.2500195 12,3.2500195 Z"
  />
  <path
    id="slash-rev-hide"
    d="m 21.825397,4.3692071 c 0.335774,0.3357746 0.30481,0.9073729 -0.06943,1.2816113 L 6.1364459,21.270341 C 5.7622075,21.64458 5.1906085,21.675544 4.8548339,21.33977 4.5190593,21.003995 4.5500242,20.432396 4.9242626,20.058158 L 20.543785,4.4386351 c 0.374239,-0.3742384 0.945837,-0.4052026 1.281612,-0.069428 z"
  />
</svg>
